<svg width="44" height="36" viewBox="0 0 44 36" fill="none" xmlns="http://www.w3.org/2000/svg">
<rect width="44" height="36" rx="5" fill="#61D894"/>
<path d="M21.5 6C14.6075 6 9 11.6075 9 18.5C9 25.3925 14.6075 31 21.5 31C28.3925 31 34 25.3925 34 18.5C34 11.6075 28.3925 6 21.5 6ZM21.5 28.5C15.9863 28.5 11.5 24.0138 11.5 18.5C11.5 12.9863 15.9863 8.5 21.5 8.5C27.0138 8.5 31.5 12.9863 31.5 18.5C31.5 24.0138 27.0138 28.5 21.5 28.5Z" fill="white"/>
<path d="M18.9991 20.4837L16.1254 17.615L14.3604 19.385L19.0016 24.0162L27.3841 15.6337L25.6166 13.8662L18.9991 20.4837Z" fill="white"/>
</svg>
