<svg width="38" height="38" viewBox="0 0 38 38" fill="none" xmlns="http://www.w3.org/2000/svg">
<path d="M0 5C0 2.23858 2.23858 0 5 0H33C35.7614 0 38 2.23858 38 5V33C38 35.7614 35.7614 38 33 38H5C2.23858 38 0 35.7614 0 33V5Z" fill="black"/>
<path d="M23.4555 8.3125C23.8064 8.3125 24.1538 8.38161 24.478 8.51588C24.8021 8.65016 25.0967 8.84697 25.3448 9.09507C25.5929 9.34318 25.7897 9.63773 25.924 9.96189C26.0583 10.2861 26.1274 10.6335 26.1274 10.9844V11.8786H27.018C28.0416 11.8792 29.0231 12.2859 29.7471 13.0095C30.4712 13.7331 30.8785 14.7143 30.8797 15.7379L30.8833 22.8594C30.8835 23.2101 30.8145 23.5574 30.6805 23.8815C30.5464 24.2056 30.3498 24.5001 30.1019 24.7482C29.854 24.9963 29.5597 25.1931 29.2358 25.3275C28.9118 25.4619 28.5645 25.5311 28.2138 25.5312H26.125V27.0156C26.125 27.7243 25.8435 28.4039 25.3424 28.9049C24.8414 29.406 24.1618 29.6875 23.4531 29.6875H14.5469C13.8382 29.6875 13.1586 29.406 12.6576 28.9049C12.1565 28.4039 11.875 27.7243 11.875 27.0156V25.5312H9.79688C9.08825 25.5312 8.40865 25.2497 7.90757 24.7487C7.4065 24.2476 7.125 23.568 7.125 22.8594V15.7391C7.125 14.7156 7.53161 13.7339 8.25538 13.0101C8.97916 12.2864 9.96081 11.8798 10.9844 11.8798L11.8738 11.8786L11.875 10.9844C11.875 10.2757 12.1565 9.59615 12.6576 9.09507C13.1586 8.594 13.8382 8.3125 14.5469 8.3125H23.4555V8.3125ZM23.4531 20.7812H14.5469C14.3107 20.7812 14.0841 20.8751 13.9171 21.0421C13.7501 21.2091 13.6562 21.4357 13.6562 21.6719V27.0156C13.6562 27.5073 14.0552 27.9062 14.5469 27.9062H23.4531C23.6893 27.9062 23.9159 27.8124 24.0829 27.6454C24.2499 27.4784 24.3438 27.2518 24.3438 27.0156V21.6719C24.3438 21.4357 24.2499 21.2091 24.0829 21.0421C23.9159 20.8751 23.6893 20.7812 23.4531 20.7812V20.7812ZM27.018 13.661H10.9844C10.4332 13.661 9.90464 13.8799 9.51492 14.2697C9.12519 14.6594 8.90625 15.188 8.90625 15.7391V22.8594C8.90625 23.351 9.30525 23.75 9.79688 23.75H11.875V21.6719C11.875 20.9632 12.1565 20.2836 12.6576 19.7826C13.1586 19.2815 13.8382 19 14.5469 19H23.4531C24.1618 19 24.8414 19.2815 25.3424 19.7826C25.8435 20.2836 26.125 20.9632 26.125 21.6719V23.75H28.2423C28.473 23.7423 28.6917 23.6452 28.8521 23.4792C29.0126 23.3132 29.1022 23.0914 29.1021 22.8606L29.0985 15.7391C29.0972 15.1879 28.8776 14.6597 28.4876 14.2702C28.0976 13.8807 27.5692 13.6616 27.018 13.661V13.661ZM23.4555 10.0938H14.5469C14.3107 10.0938 14.0841 10.1876 13.9171 10.3546C13.7501 10.5216 13.6562 10.7482 13.6562 10.9844L13.6551 11.8786H24.3461V10.9844C24.3461 10.7482 24.2523 10.5216 24.0853 10.3546C23.9182 10.1876 23.6917 10.0938 23.4555 10.0938V10.0938Z" fill="white"/>
</svg>
